<svg xmlns="http://www.w3.org/2000/svg" viewBox="0 0 513.79 51.25"><g id="レイヤー_2" data-name="レイヤー 2"><g id="レイヤー_1-2" data-name="レイヤー 1"><path d="M1.57,45.08A1.52,1.52,0,0,1,0,43.57a2.37,2.37,0,0,1,.7-1.52,55.88,55.88,0,0,0,7-9.67,1.59,1.59,0,0,1,3,.64c0,1.4-4.31,7.58-7.28,11.07A2.6,2.6,0,0,1,1.57,45.08ZM21,46.83c-2,0-8.39-1.28-8.39-3.38A1.49,1.49,0,0,1,14.09,42a1.37,1.37,0,0,1,.65.12,16.53,16.53,0,0,0,6.4,1.57c3.79,0,5.48-2.33,5.48-5.18a9.55,9.55,0,0,0-1.75-5.19c-1.92-2.79-4.95-5.35-7-7.8a1.93,1.93,0,0,1-.58-1.28,1.45,1.45,0,0,1,1.57-1.34,1.56,1.56,0,0,1,1.11.47c8.09,8.44,10,11.12,10,15.31C29.94,43.22,26.44,46.83,21,46.83ZM24.87,19a1.12,1.12,0,0,1-.41.06A1.44,1.44,0,0,1,23,17.65a1.11,1.11,0,0,1,.64-1c1.75-.93,2.68-1.4,2.68-2.16a3,3,0,0,0-.76-1.51c-1.57-2-4-3.49-5.42-5.24a1.41,1.41,0,0,1-.35-.88A1.46,1.46,0,0,1,21.2,5.48a1.68,1.68,0,0,1,1.22.58C23.7,7.34,26.27,9.2,28.07,11c2.68,2.62,2.68,3.79,2.68,4.31,0,.93-.52,1.92-2.27,2.27C27.78,17.65,25.86,18.75,24.87,19ZM42.46,41.12c-1.46-4.78-5.48-8-7.63-9.55a1.35,1.35,0,0,1-.7-1.17,1.48,1.48,0,0,1,1.51-1.34c2.39,0,10.26,7.81,10.26,11.36A1.86,1.86,0,0,1,44,42.34,1.62,1.62,0,0,1,42.46,41.12Z"/><path d="M72.63,5a1.77,1.77,0,0,1,1.92,1.63c0,.29-.06,2.62-.88,13.4-.4,5.35-.87,10.19-.87,15,0,.93,0,1.81.06,2.74.17,4.89,3.55,7.45,8.27,7.45,4.31,0,9.73-2.09,15-6.4a2.22,2.22,0,0,1,1.51-.64,1.77,1.77,0,0,1,1.69,1.86,2.08,2.08,0,0,1-.82,1.63c-5.47,4.49-11.94,6.87-17.29,6.87-6.41,0-11.42-3.37-11.65-10.77-.06-.87-.06-1.69-.06-2.5,0-5.07.58-9.56.81-15,.18-3.5.53-8.51.53-12.23V6.76A1.64,1.64,0,0,1,72.63,5ZM91.38,19.63a21.38,21.38,0,0,0-6.17-5,1.2,1.2,0,0,1-.76-1,1.37,1.37,0,0,1,1.45-1.28c1.34,0,8.1,4,8.1,6.29a1.61,1.61,0,0,1-1.51,1.63A1.32,1.32,0,0,1,91.38,19.63Zm5.71-4.55a21.72,21.72,0,0,0-6.29-4.89A1.25,1.25,0,0,1,90,9.09a1.34,1.34,0,0,1,1.46-1.23c1.16,0,8.27,3.73,8.27,6.18a1.61,1.61,0,0,1-1.52,1.63A1.41,1.41,0,0,1,97.09,15.08Z"/><path d="M130.63,38.67a56.61,56.61,0,0,0,.58,8.8v.29a1.7,1.7,0,0,1-1.74,1.69c-1.81,0-1.92-1.75-1.92-6.58,0-2.27,0-4.9.23-7.69A36.5,36.5,0,0,0,122,43.57a2.33,2.33,0,0,1-2,1.34,1.68,1.68,0,0,1-1.69-1.64c0-.81.59-1.68,2.68-4.13a110.93,110.93,0,0,0,7.58-14.5l.34-4c-1.74.81-5.76,2.91-7.22,3.78a2.3,2.3,0,0,1-1.16.35,1.46,1.46,0,0,1-1.4-1.57,1.56,1.56,0,0,1,.93-1.46c2.56-1.22,6-2.79,9.15-4.07l1.1-11.65a1.54,1.54,0,0,1,1.58-1.46A1.52,1.52,0,0,1,133.49,6v.17c-.35,2.51-.88,6.18-1.34,10.43a1.88,1.88,0,0,1,.58-.06,1.64,1.64,0,0,1,1.69,1.75,4.62,4.62,0,0,1-.82,2.39c-.35.58-1.22,2.27-2.33,4.48l-.29,4c5.59-4.42,12.06-8.27,19.34-8.27,7.63,0,12.87,4.49,12.87,9.79,0,9.43-14.33,16.07-16.42,16.07a1.77,1.77,0,0,1-1.87-1.63c0-.7.53-1.4,1.69-1.81,7.51-2.67,13.11-7.57,13.11-12.58,0-4.07-4-7-9.56-7-9,0-17.12,6.87-19.33,8.85Q130.63,35.69,130.63,38.67Z"/><path d="M195.51,50.32a1.75,1.75,0,0,1-1.92-1.63c0-.76.52-1.51,1.81-1.75a31,31,0,0,0,8.38-2.73c5.77-3.38,8.27-7.23,8.27-10.25,0-3.5-3-4.84-6.29-4.84-6.11,0-13.28,4.54-16.36,7.22a4.73,4.73,0,0,1-2.92,1.46c-1.63,0-2.68-1.4-2.68-5.77a60.61,60.61,0,0,1,.53-6.87c.46-3.78,1.22-7.57,1.63-10.13a1.61,1.61,0,0,1,1.63-1.4A1.33,1.33,0,0,1,189,15v.29c-.35,2.5-1.05,5.94-1.52,8.79a49.33,49.33,0,0,0-.69,6.7c0,.93,0,2.62.69,2.62a3.2,3.2,0,0,0,1.29-.64c5-3.08,11-6.46,17.18-6.46,5.94,0,9.49,3.26,9.49,7.63,0,4-2.91,8.79-9.49,12.81C202.79,48.63,197.14,50.32,195.51,50.32Zm.41-37.62a2.39,2.39,0,0,1-.64.11,1.49,1.49,0,0,1-1.52-1.45,1,1,0,0,1,.7-1c1.52-.58,2.22-1,2.22-1.46S196.09,8,195,7.34c-4.2-2.68-4.49-2.86-4.49-3.79A1.41,1.41,0,0,1,192,2.21a2.35,2.35,0,0,1,1.28.47c1.11.81,2.79,1.86,4.19,2.68,1.69,1,3.73,2.33,3.79,3.73C201.28,10.72,200.7,11.3,195.92,12.7Z"/><path d="M239.13,22.89a25.9,25.9,0,0,0-7.39-3.26,1.17,1.17,0,0,1-.94-1.17,1.62,1.62,0,0,1,1.63-1.57s9.27,1.63,9.27,4.54a1.73,1.73,0,0,1-1.64,1.75A1.59,1.59,0,0,1,239.13,22.89Zm-5,26.67a1.73,1.73,0,0,1-1.69-1.68,1.65,1.65,0,0,1,.41-1.11,50.8,50.8,0,0,0,8.74-14.39,1.53,1.53,0,0,1,2.91.59c0,1.74-5.24,11.53-8.79,15.72A2.2,2.2,0,0,1,234.12,49.56Zm8.27-38.9a28.17,28.17,0,0,0-6.75-4.78,1.13,1.13,0,0,1-.7-1,1.59,1.59,0,0,1,1.57-1.45c1.05,0,8.62,3.84,8.62,5.94a1.83,1.83,0,0,1-1.69,1.8A1.58,1.58,0,0,1,242.39,10.66Zm19.75,16.66a115.29,115.29,0,0,1-6.06,17.29c5.83-.69,11.82-1.68,16.89-2.79a54.31,54.31,0,0,0-5.71-6.64,1.2,1.2,0,0,1-.4-.87,1.48,1.48,0,0,1,1.51-1.4,1.54,1.54,0,0,1,1.11.46c3.37,3.21,10.66,11.94,10.66,14.27a1.81,1.81,0,0,1-1.75,1.81,1.7,1.7,0,0,1-1.52-1.11,29.8,29.8,0,0,0-2.33-4.25,187.5,187.5,0,0,1-28.3,4.6,1.52,1.52,0,0,1-1.57-1.57,1.47,1.47,0,0,1,1.39-1.57c2.22-.12,4.49-.35,6.88-.59a106.73,106.73,0,0,0,5.88-17.64l-12.29.05a1.33,1.33,0,0,1-1.4-1.34,1.34,1.34,0,0,1,1.4-1.39l14.27.06V14.33l-11.07.06a1.37,1.37,0,1,1,0-2.74l11,.06V3.44a1.5,1.5,0,0,1,1.63-1.52,1.48,1.48,0,0,1,1.57,1.52l-.05,8.27,12.05-.06a1.37,1.37,0,1,1,0,2.74l-12.05-.06V24.7l15.43-.06a1.34,1.34,0,0,1,1.4,1.39,1.33,1.33,0,0,1-1.4,1.34Z"/><path d="M295.57,49.74l.81-24.52c-.35.35-6.11,5.77-7.74,5.77a1.58,1.58,0,0,1-.7-3,46.67,46.67,0,0,0,14.62-14.74,1.54,1.54,0,0,1,1.28-.76,1.67,1.67,0,0,1,1.69,1.57c0,1.11-3.91,5.71-6,8l-.64,27.67a1.59,1.59,0,0,1-1.75,1.46,1.45,1.45,0,0,1-1.57-1.4Zm-5.89-32.91A1.61,1.61,0,0,1,288,15.38a1.77,1.77,0,0,1,1-1.46A37.86,37.86,0,0,0,301.33,1.51,1.57,1.57,0,0,1,302.67.7a1.6,1.6,0,0,1,1.63,1.51C304.3,4.25,292.65,16.83,289.68,16.83ZM321.78,41l.05,8.86a1.41,1.41,0,0,1-1.57,1.39,1.4,1.4,0,0,1-1.51-1.39l.06-8.86-14.22.06a1.28,1.28,0,1,1,0-2.56l14.22.06.05-5.94-11.47.05a1.24,1.24,0,0,1-1.28-1.22,1.2,1.2,0,0,1,1.28-1.22l11.47.06V24.64H308a1.13,1.13,0,0,1-1.11-1.23A1,1,0,0,1,308,22.25H308c2.16.06,6.58.06,10.83.06V16.54H306.92a1.13,1.13,0,0,1-1.1-1.22,1.11,1.11,0,0,1,1.1-1.23h11.94l-.05-5.7H308.09a1.2,1.2,0,0,1-1.22-1.28,1.19,1.19,0,0,1,1.22-1.23h10.72L318.75,2a1.42,1.42,0,0,1,1.57-1.4A1.4,1.4,0,0,1,321.83,2V5.88c2.68,0,5,.06,6.24.06,5.76,0,5.76,2,5.76,8H338a1.21,1.21,0,0,1,1.22,1.28A1.22,1.22,0,0,1,338,16.6h-4.14c0,5.47,0,8-5.71,8h-6.4v5.65L334,30.23a1.11,1.11,0,0,1,1.16,1.22A1.14,1.14,0,0,1,334,32.67l-12.17-.05v5.94l15.55-.06a1.29,1.29,0,0,1,0,2.56Zm0-24.46-.06,5.77c2.62,0,4.95-.06,6.17-.06,3-.06,3-1.52,3-5.71Zm9.14-2.45c0-4.42,0-5.64-3.09-5.7h-6.05v5.7Z"/><path d="M390,34.31c0,3.43,0,6.81-5.59,6.93-3.2,0-6.87,0-10.66,0v.41c0,1,.06,2.51.06,3.61,0,2.74-.93,5.48-6.58,5.48-5.18,0-5.47-.93-5.47-1.81a1.45,1.45,0,0,1,1.45-1.51h.29a23.2,23.2,0,0,0,4,.46c2.1,0,3.32-.75,3.32-3.37V41.29H354.68a1.17,1.17,0,0,1-1.16-1.22,1.14,1.14,0,0,1,1.16-1.22c4.19.06,10.25.06,16.19.06V34.19H348A1.1,1.1,0,0,1,346.93,33,1.08,1.08,0,0,1,348,31.8h22.83V27.61c-5.82,0-11.7.06-16.25.11a1.13,1.13,0,0,1-1.1-1.22,1.17,1.17,0,0,1,1.16-1.22h16.19V21.67c-15.26,0-15.49-.12-15.49-4.66,0-3.09.35-5.13,5.36-5.19,2.38,0,6.17-.05,10.13-.05V8L351.77,8a1.23,1.23,0,0,1-1.28-1.34,1.21,1.21,0,0,1,1.28-1.28l19.1.06v-4A1.41,1.41,0,0,1,372.33,0a1.38,1.38,0,0,1,1.45,1.46v4l18.93-.06a1.27,1.27,0,0,1,1.34,1.28A1.28,1.28,0,0,1,392.71,8L373.78,8v3.79c4,0,7.75,0,10.25.05,4.37.06,5.19,1.58,5.19,4.9,0,3-.29,4.66-5.13,4.83-2.38.06-6.29.12-10.31.12v3.61c3.73,0,7.4,0,10.72.06,5.24.05,5.53,2.91,5.53,6.29h6.29A1.24,1.24,0,0,1,397.61,33a1.27,1.27,0,0,1-1.29,1.34ZM370.87,14c-3.9,0-7.63.06-9.72.11-2.51.06-2.74.82-2.74,2.51,0,.35.06.7.06,1,.11,1.75.7,1.81,12.4,1.81Zm2.91,5.42c11.77,0,12.23-.06,12.35-1.75a5.16,5.16,0,0,0,.06-1,5.16,5.16,0,0,0-.06-1C386,14,385.49,14,373.78,14Zm13.34,12.4c0-2-.17-4-3.2-4.08s-6.53-.11-10.14-.11V31.8Zm-13.34,2.39v4.72c3.73,0,7.28,0,10.14-.06,3.2-.12,3.2-2.56,3.2-4.66Z"/><path d="M407.1,21.08a1.21,1.21,0,0,1-1.23-1.28,1.31,1.31,0,0,1,1.28-1.34c2.39-.06,6.41-.11,10.2-.11,2.5,0,4.89,0,6.75.11s3.61.94,3.61,2.86c0,1.69-2.21,5.65-2.79,6.52a1.73,1.73,0,0,1-1.4.82,1.29,1.29,0,0,1-1.34-1.17,1.15,1.15,0,0,1,.23-.7c2.33-3.43,2.45-4.77,2.45-5,0-.58-.47-.81-1.51-.87H419.5c0,2,.06,13.63.06,16.54,0,.93,0,5.07.06,7.16v.12c0,3.26-1.69,5.65-6.29,5.65-1.87,0-4.66-.06-4.66-1.92A1.43,1.43,0,0,1,410,46.94h.23a22.55,22.55,0,0,0,3.2.35c1.87,0,3.09-.64,3.15-2.85,0-2.45.06-14.21.06-14.21,0-1.69.06-3.32.06-4.72a58.31,58.31,0,0,1-9.15,13.11,2,2,0,0,1-1.28.64,1.66,1.66,0,0,1-1.57-1.64,1.6,1.6,0,0,1,.58-1.16,56.22,56.22,0,0,0,11.18-15.55l-9.32.17Zm2.21-15A1.32,1.32,0,0,1,408,4.72a1.33,1.33,0,0,1,1.34-1.4s10.13-.12,13-.12c2.44,0,3.73,1.23,3.73,2.86,0,2.68-4.84,7-6.76,8.56,1,1,1.34,1.51,1.34,2a1.42,1.42,0,0,1-1.4,1.4,1.3,1.3,0,0,1-1-.53,20.62,20.62,0,0,0-5.82-4.89.91.91,0,0,1-.47-.76,1.33,1.33,0,0,1,1.28-1.28c.35,0,1.69.52,4.08,2.39,2.91-2.45,5.36-5.48,5.36-6.41,0-.52-.47-.76-1.17-.76-2.21,0-12.11.24-12.11.24Zm29.35,20.21a1.33,1.33,0,0,1,1.46,1.4,35,35,0,0,1-.29,4.25c2.62,0,4.95.06,6.23.06,3.73.05,5.36,1.74,5.36,4.6a25.63,25.63,0,0,1-1.69,8.5c-1.51,3.44-4.66,4.72-8.15,4.72a17.73,17.73,0,0,1-4.9-.76,1.34,1.34,0,0,1-1-1.34A1.44,1.44,0,0,1,437,46.13a1.69,1.69,0,0,1,.53.12,13.61,13.61,0,0,0,4.31.81,5.19,5.19,0,0,0,5-2.85,21.41,21.41,0,0,0,1.63-7.28c0-1.58-1-2.45-3.09-2.45-1.16,0-3.38.06-6,.06-3.26,13.34-15.84,16-16,16a1.46,1.46,0,0,1-1.52-1.46,1.24,1.24,0,0,1,.93-1.28c8.33-2.62,12.29-7.63,13.75-13.28-3.73,0-7.51,0-9.38.06a1.31,1.31,0,0,1,0-2.62c1.92,0,5.88-.06,9.84-.06a34.29,34.29,0,0,0,.24-3.5v-.81A1.37,1.37,0,0,1,438.66,26.27Zm10-16.37a21.88,21.88,0,0,1-5.82,10.43,30.46,30.46,0,0,0,11.18,4,1.27,1.27,0,0,1,1.17,1.34,1.6,1.6,0,0,1-1.69,1.57,28.84,28.84,0,0,1-12.76-5,30.63,30.63,0,0,1-12,5.59,1.39,1.39,0,0,1-1.45-1.4,1.3,1.3,0,0,1,1-1.28,29.08,29.08,0,0,0,10.31-4.6,24.4,24.4,0,0,1-6.34-8.44c-3.38,4.89-4.43,5.12-5,5.12a1.47,1.47,0,0,1-1.51-1.28,1.2,1.2,0,0,1,.47-.93A34.82,34.82,0,0,0,434.7,2.1a1.06,1.06,0,0,1,1.11-.64c.81,0,1.69.46,1.69,1.22a20.57,20.57,0,0,1-2.21,4.78L453,7.28a1.21,1.21,0,0,1,1.28,1.28A1.23,1.23,0,0,1,453,9.9Zm-14.62,0a22,22,0,0,0,6.58,8.91,18.61,18.61,0,0,0,5.07-8.91Z"/><path d="M465.16,49.16a1.74,1.74,0,0,1-1.45.81,1.46,1.46,0,0,1-1.29-2.39c5-6.46,5.77-14.21,5.77-21.31,0-3.09-.12-6.06-.17-8.74,0-2.39,1.57-4.48,4.83-4.6,1.22-.06,2.33-.06,3.32-.06,8.33,0,9.43.23,9.43,8,0,8-1.28,8.15-10.54,8.15-1.39,0-2.79-.06-4-.06C470.81,35.88,469.59,43.22,465.16,49.16Zm1.63-42.4a1.37,1.37,0,1,1,0-2.74H486a1.37,1.37,0,1,1,0,2.74Zm8.27,19.74c7.63,0,7.63,0,7.63-6.23,0-4.66-.17-4.89-5.88-4.89-4.31,0-5.71.23-5.71,2.79.06,1.75.06,3.67.06,5.71v2.56C472.27,26.44,473.67,26.5,475.06,26.5Zm26.21-5.24h-8.09c-.12,10-1.63,21.26-10.89,27.61a2,2,0,0,1-1.17.4,1.61,1.61,0,0,1-1.63-1.57,1.5,1.5,0,0,1,.76-1.22c8.62-5.77,10-16.08,10-25.8,0-2.51-.11-4.95-.17-7.28v-.35c0-3.85,1.8-5.65,5.24-6.18a51.05,51.05,0,0,0,13.22-3.61,2.51,2.51,0,0,1,.58-.11,1.58,1.58,0,0,1,1.52,1.68,1.39,1.39,0,0,1-1,1.4,75.9,75.9,0,0,1-13.28,3.32c-2.62.47-3.2,1.75-3.2,3.85v.29c0,1.57.06,3.14.06,4.83l19.28-.06a1.29,1.29,0,0,1,1.33,1.4,1.31,1.31,0,0,1-1.33,1.46l-8.22-.06.06,27.9a1.46,1.46,0,0,1-1.51,1.51,1.48,1.48,0,0,1-1.58-1.51Z"/></g></g></svg>